<svg width="46" height="46" viewBox="0 0 46 46" fill="none" xmlns="http://www.w3.org/2000/svg">
<path d="M16.5312 0C19.3074 0 21.5625 2.25508 21.5625 5.03125V40.9688C21.5625 43.7449 19.3074 46 16.5312 46C13.9348 46 11.7965 44.0324 11.527 41.4988C11.0598 41.6246 10.5656 41.6875 10.0625 41.6875C6.89102 41.6875 4.3125 39.109 4.3125 35.9375C4.3125 35.2727 4.4293 34.6258 4.63594 34.0328C1.92266 33.0086 0 30.3852 0 27.3125C0 24.4465 1.68008 21.9668 4.11484 20.8168C3.3332 19.8375 2.875 18.5977 2.875 17.25C2.875 14.4918 4.81563 12.1918 7.40313 11.6258C7.25938 11.1316 7.1875 10.6016 7.1875 10.0625C7.1875 7.37617 9.03828 5.11211 11.527 4.4832C11.7965 1.96758 13.9348 0 16.5312 0ZM29.4688 0C32.0652 0 34.1945 1.96758 34.473 4.4832C36.9707 5.11211 38.8125 7.36719 38.8125 10.0625C38.8125 10.6016 38.7406 11.1316 38.5969 11.6258C41.1844 12.1828 43.125 14.4918 43.125 17.25C43.125 18.5977 42.6668 19.8375 41.8852 20.8168C44.3199 21.9668 46 24.4465 46 27.3125C46 30.3852 44.0773 33.0086 41.3641 34.0328C41.5707 34.6258 41.6875 35.2727 41.6875 35.9375C41.6875 39.109 39.109 41.6875 35.9375 41.6875C35.4344 41.6875 34.9402 41.6246 34.473 41.4988C34.2035 44.0324 32.0652 46 29.4688 46C26.6926 46 24.4375 43.7449 24.4375 40.9688V5.03125C24.4375 2.25508 26.6926 0 29.4688 0Z" fill="#0B0A0C"/>
</svg>
