<svg width="18" height="18" viewBox="0 0 18 18" fill="none" xmlns="http://www.w3.org/2000/svg">
<path d="M13.6328 2.38281C14.1211 1.89453 14.1211 1.10156 13.6328 0.613281C13.1445 0.125 12.3516 0.125 11.8633 0.613281L6.5 5.98047L4.25781 3.73828C3.76953 3.25 2.97656 3.25 2.48828 3.73828C2 4.22656 2 5.01953 2.48828 5.50781L5.61328 8.63281C6.10156 9.12109 6.89453 9.12109 7.38281 8.63281L13.6328 2.38281ZM17.3828 7.38281C17.8711 6.89453 17.8711 6.10156 17.3828 5.61328C16.8945 5.125 16.1016 5.125 15.6133 5.61328L6.5 14.7305L2.38281 10.6172C1.89453 10.1289 1.10156 10.1289 0.613281 10.6172C0.125 11.1055 0.125 11.8984 0.613281 12.3867L5.61328 17.3867C6.10156 17.875 6.89453 17.875 7.38281 17.3867L17.3828 7.38672V7.38281Z" fill="#0B0A0C"/>
</svg>
