<svg width="19" height="22" viewBox="0 0 19 22" fill="none" xmlns="http://www.w3.org/2000/svg">
<path d="M6.74496 0.231896C7.07523 -0.0817761 7.58755 -0.0774792 7.91782 0.236193C9.08644 1.34908 10.1831 2.54791 11.2077 3.84557C11.6735 3.22682 12.2028 2.55221 12.7744 2.00221C13.1089 1.68424 13.6254 1.68424 13.9599 2.00651C15.4249 3.42447 16.6655 5.29791 17.5378 7.07682C18.3973 8.82994 18.9689 10.6217 18.9689 11.885C18.9689 17.3678 14.7432 21.9999 9.48444 21.9999C4.16638 21.9999 0 17.3635 0 11.8807C0 10.2307 0.753675 8.21549 1.92229 6.22174C3.10361 4.19791 4.77186 2.08815 6.74496 0.231896ZM9.55642 17.8749C10.6277 17.8749 11.5761 17.5741 12.4695 16.9725C14.2521 15.7092 14.7305 13.1827 13.6593 11.1975C13.5407 10.9569 13.4222 10.7163 13.2443 10.4756L11.1019 13.0022C11.1019 13.0022 7.6553 8.55065 7.41396 8.24986C5.63562 10.4756 4.74222 11.7389 4.74222 13.1827C4.74222 16.1303 6.88469 17.8749 9.55642 17.8749Z" fill="#0B0A0C"/>
</svg>
