<svg width="40" height="46" viewBox="0 0 40 46" fill="none" xmlns="http://www.w3.org/2000/svg">
<g clip-path="url(#clip0_3228_323)">
<path d="M30.933 4.00711C31.4553 2.77625 31.0658 1.33875 29.9945 0.548127C28.9233 -0.242498 27.4625 -0.170623 26.4621 0.709846L3.79801 20.8348C2.91269 21.6255 2.59398 22.8923 3.01008 24.0063C3.42618 25.1204 4.48856 25.8751 5.66603 25.8751H15.5373L8.72923 41.993C8.20689 43.2239 8.59643 44.6614 9.66767 45.452C10.7389 46.2427 12.1997 46.1708 13.2001 45.2903L35.8642 25.1653C36.7495 24.3747 37.0682 23.1079 36.6521 21.9938C36.236 20.8798 35.1825 20.1341 33.9962 20.1341H24.1249L30.933 4.00711Z" fill="#0B0A0C"/>
</g>
<defs>
<clipPath id="clip0_3228_323">
<rect width="39.6622" height="46" fill="white"/>
</clipPath>
</defs>
</svg>
