<svg width="20" height="20" viewBox="0 0 20 20" fill="none" xmlns="http://www.w3.org/2000/svg">
<path d="M10.5235 0.113281C10.3594 0.0390625 10.1836 0 10 0C9.81642 0 9.64064 0.0390625 9.47658 0.113281L2.12111 3.23438C1.26174 3.59766 0.621112 4.44531 0.625018 5.46875C0.644549 9.34375 2.2383 16.4336 8.96877 19.6562C9.62111 19.9688 10.3789 19.9688 11.0313 19.6562C17.7617 16.4336 19.3555 9.34375 19.375 5.46875C19.3789 4.44531 18.7383 3.59766 17.8789 3.23438L10.5235 0.113281ZM10 4.375C10.3438 4.375 10.625 4.65625 10.625 5C10.625 6.28906 12.1836 6.93359 13.0938 6.02344C13.336 5.78125 13.7344 5.78125 13.9766 6.02344C14.2188 6.26562 14.2188 6.66406 13.9766 6.90625C13.0664 7.81641 13.711 9.375 15 9.375C15.3438 9.375 15.625 9.65625 15.625 10C15.625 10.3438 15.3438 10.625 15 10.625C13.711 10.625 13.0664 12.1836 13.9766 13.0938C14.2188 13.3359 14.2188 13.7344 13.9766 13.9766C13.7344 14.2187 13.336 14.2187 13.0938 13.9766C12.1836 13.0664 10.625 13.7109 10.625 15C10.625 15.3438 10.3438 15.625 10 15.625C9.65627 15.625 9.37502 15.3438 9.37502 15C9.37502 13.7109 7.81642 13.0664 6.90627 13.9766C6.66408 14.2187 6.26564 14.2187 6.02346 13.9766C5.78127 13.7344 5.78127 13.3359 6.02346 13.0938C6.93361 12.1836 6.28908 10.625 5.00002 10.625C4.65627 10.625 4.37502 10.3438 4.37502 10C4.37502 9.65625 4.65627 9.375 5.00002 9.375C6.28908 9.375 6.93361 7.81641 6.02346 6.90625C5.78127 6.66406 5.78127 6.26562 6.02346 6.02344C6.26564 5.78125 6.66408 5.78125 6.90627 6.02344C7.81642 6.93359 9.37502 6.28906 9.37502 5C9.37502 4.65625 9.65627 4.375 10 4.375ZM9.06252 10C9.58205 10 10 9.58203 10 9.0625C10 8.54297 9.58205 8.125 9.06252 8.125C8.54299 8.125 8.12502 8.54297 8.12502 9.0625C8.12502 9.58203 8.54299 10 9.06252 10ZM11.875 11.25C11.875 10.9062 11.5938 10.625 11.25 10.625C10.9063 10.625 10.625 10.9062 10.625 11.25C10.625 11.5938 10.9063 11.875 11.25 11.875C11.5938 11.875 11.875 11.5938 11.875 11.25Z" fill="black"/>
</svg>
