<svg width="18" height="24" viewBox="0 0 18 24" fill="none" xmlns="http://www.w3.org/2000/svg">
<path d="M14.5982 2.4226C14.8616 1.80193 14.6652 1.07706 14.125 0.678378C13.5849 0.279699 12.8482 0.315943 12.3438 0.759926L0.915215 10.9081C0.468787 11.3068 0.308073 11.9456 0.517894 12.5074C0.727715 13.0691 1.26343 13.4497 1.85718 13.4497H6.83486L3.40182 21.5773C3.13843 22.198 3.33486 22.9229 3.87504 23.3215C4.41521 23.7202 5.15182 23.684 5.65629 23.24L17.0849 13.0918C17.5313 12.6931 17.692 12.0543 17.4822 11.4925C17.2724 10.9308 16.7411 10.5547 16.1429 10.5547H11.1652L14.5982 2.4226Z" fill="#0B0A0C"/>
</svg>
