<svg width="20" height="18" viewBox="0 0 20 18" fill="none" xmlns="http://www.w3.org/2000/svg">
<path d="M12.2422 0.285132C13.2578 0.488257 13.918 1.47654 13.7148 2.49216L13.625 2.93748C13.418 3.98044 13.0352 4.97263 12.5 5.87498H18.125C19.1602 5.87498 20 6.71482 20 7.74998C20 8.73826 19.2383 9.54685 18.2695 9.62107C18.5703 9.9531 18.75 10.3945 18.75 10.875C18.75 11.789 18.0938 12.5508 17.2305 12.7148C17.4023 12.9961 17.5 13.332 17.5 13.6875C17.5 14.5195 16.957 15.2265 16.207 15.4687C16.2344 15.5976 16.25 15.7344 16.25 15.875C16.25 16.9101 15.4102 17.75 14.375 17.75H11.5039C10.7617 17.75 10.0391 17.5312 9.42188 17.1211L7.91797 16.1172C6.875 15.4219 6.25 14.25 6.25 12.9961V11.5V9.62498V8.65232C6.25 7.51169 6.76953 6.43748 7.65625 5.72263L7.94531 5.49216C8.98047 4.66404 9.6875 3.49998 9.94531 2.2031L10.0352 1.75779C10.2383 0.742163 11.2266 0.0820067 12.2422 0.285132ZM1.25 6.49998H3.75C4.44141 6.49998 5 7.05857 5 7.74998V16.5C5 17.1914 4.44141 17.75 3.75 17.75H1.25C0.558594 17.75 0 17.1914 0 16.5V7.74998C0 7.05857 0.558594 6.49998 1.25 6.49998Z" fill="#0B0A0C"/>
</svg>
