<svg width="20" height="24" viewBox="0 0 20 24" fill="none" xmlns="http://www.w3.org/2000/svg">
<path d="M15.0001 2.71439C15.0001 1.53135 14.0402 0.571533 12.8572 0.571533C11.6742 0.571533 10.7144 1.53135 10.7144 2.71439C10.7144 3.89743 11.6742 4.85725 12.8572 4.85725C14.0402 4.85725 15.0001 3.89743 15.0001 2.71439ZM6.32596 8.40635C6.76793 7.96439 7.3706 7.71439 8.00007 7.71439C8.08489 7.71439 8.16971 7.71885 8.25007 7.72778L6.85721 11.9108C6.44203 13.1608 6.9331 14.5358 8.05364 15.2367L11.9019 17.643L10.7679 21.6072C10.5492 22.3662 10.9911 23.1564 11.7501 23.3751C12.509 23.5939 13.2992 23.1519 13.5179 22.393L14.7992 17.9108C15.0626 16.9912 14.6831 16.009 13.8751 15.5046L11.3394 13.9197L12.7188 10.2412L12.9465 10.7903C13.6161 12.3885 15.1742 13.4287 16.9063 13.4287H17.8572C18.6474 13.4287 19.2858 12.7903 19.2858 12.0001C19.2858 11.2099 18.6474 10.5715 17.8572 10.5715H16.9063C16.3304 10.5715 15.8081 10.2233 15.5894 9.69207L15.3081 9.02243C14.6563 7.45546 13.3394 6.25903 11.7144 5.75903L9.54025 5.08939C9.04471 4.9376 8.52685 4.85725 8.00453 4.85725C6.6206 4.85725 5.29025 5.40635 4.31257 6.3885L3.27686 7.41975C2.71882 7.97778 2.71882 8.88403 3.27686 9.44207C3.83489 10.0001 4.74114 10.0001 5.29918 9.44207L6.33043 8.41082L6.32596 8.40635ZM4.78578 16.2858H2.14293C1.35275 16.2858 0.714355 16.9242 0.714355 17.7144C0.714355 18.5046 1.35275 19.143 2.14293 19.143H5.25007C6.09828 19.143 6.86614 18.643 7.20989 17.8706L7.72328 16.7144L7.29918 16.4465C6.51793 15.9599 5.93757 15.2501 5.60721 14.4421L4.78578 16.2858Z" fill="#0B0A0C"/>
</svg>
